<svg width="200" height="200" viewBox="0 0 425 441" fill="none" xmlns="http://www.w3.org/2000/svg">
<rect x="1.5" y="1.5" width="422" height="438" rx="75.5" fill="white" stroke="black" stroke-width="3"/>
<path fill-rule="evenodd" clip-rule="evenodd" d="M203.648 81.1104C195.234 82.0652 187.295 84.1756 181.461 87.0094C174.628 90.3286 163.261 101.835 157.783 110.977C150.249 123.552 149.703 131.263 154.922 151.369C156.968 159.251 156.89 158.728 156.018 158.728C154.95 158.728 152.214 161.301 151.049 163.4C148.736 167.572 148.372 175.828 150.233 181.922C152.668 189.896 158.569 196.014 163.918 196.112C165.104 196.134 165.366 196.561 167.165 201.414C170.699 210.942 176.768 220.195 183.654 226.551L187.137 229.766V240.86C187.137 251.635 187.108 251.955 186.111 251.955C185.546 251.955 180.031 252.67 173.856 253.544C143.817 257.797 142.081 258.151 134.02 261.673C125.081 265.58 117.008 271.871 111.53 279.202C106.869 285.439 104.623 290.269 102.987 297.571C102.122 301.432 102 304.068 102 318.84V335.701L103.419 336.334C104.929 337.007 106.708 336.706 107.494 335.643C107.736 335.316 108.065 326.942 108.225 317.034C108.494 300.383 108.6 298.751 109.636 295.482C111.052 291.013 114.725 284.215 117.665 280.62C122.293 274.962 130.905 268.726 138.119 265.81C141.311 264.519 145.556 263.214 146.561 263.214C147.017 263.214 147.43 264.604 147.867 267.605C150.139 283.22 156.171 297.367 166.472 311.238C167.099 312.081 167.043 312.462 166.008 314.384C160.567 324.488 171.662 335.632 183.857 332.314C187.798 331.241 192.217 327.554 193.496 324.272C197.451 314.12 186.162 304.063 174.753 307.576C173.547 307.947 172.355 308.251 172.105 308.251C171.389 308.251 167.131 302.202 164.031 296.78C159.186 288.303 155.058 275.719 153.726 265.358L153.277 261.872L154.857 261.637C166.599 259.89 187.933 257.007 188.169 257.134C188.339 257.226 193.918 269.192 200.566 283.727C210.609 305.68 212.854 310.219 213.828 310.542C216.762 311.516 216.57 311.847 229.434 283.727C236.082 269.192 241.661 257.226 241.831 257.134C242.067 257.007 263.401 259.89 275.143 261.637L276.723 261.872L276.267 265.358C275.252 273.112 272.136 284.734 270.966 285.126C270.605 285.246 268.753 284.926 266.852 284.413C257.046 281.77 245.651 284.485 238.552 291.156C236.459 293.123 234.226 296.485 227.992 307.053C223.645 314.423 219.661 321.537 219.139 322.861C214.84 333.767 220.849 346.52 232.742 351.732C234.696 352.588 236.807 353.289 237.434 353.289C239.047 353.289 240.394 351.823 240.193 350.288C240.051 349.207 239.476 348.772 236.449 347.456C226.389 343.082 221.486 333.235 225 324.465C226.497 320.73 240.66 297.241 242.583 295.303C246.811 291.044 252.425 288.814 258.923 288.814C262.318 288.814 263.971 289.129 270.043 290.93C273.966 292.094 278.508 293.657 280.136 294.403C287.427 297.746 291.936 305.021 291.2 312.255C291.034 313.892 289.505 321.35 287.803 328.826C284.383 343.853 283.659 345.646 279.567 349.218C278.233 350.382 275.53 352.028 273.56 352.874C270.16 354.336 269.702 354.414 264.547 354.402C261.56 354.394 258.24 354.215 257.17 354.003C254.882 353.55 253.183 354.524 253.183 356.286C253.183 358.876 258.169 360.307 265.925 359.944C275.013 359.52 282.506 355.71 287.529 348.959C290.08 345.531 290.964 342.73 294.413 327.163C297.699 312.33 297.917 310.564 296.994 306.206C295.402 298.692 288.341 291.091 280.661 288.624C279.312 288.191 278.008 287.685 277.763 287.5C277.519 287.315 278.15 284.32 279.166 280.844C280.182 277.369 281.416 271.98 281.907 268.87C282.515 265.019 283.008 263.214 283.452 263.214C285.698 263.214 295.126 266.975 299.569 269.643C303.123 271.778 309.795 277.514 312.335 280.62C315.275 284.215 318.948 291.013 320.364 295.482C321.4 298.751 321.506 300.383 321.775 317.034C321.935 326.942 322.264 335.316 322.506 335.643C323.292 336.706 325.071 337.007 326.581 336.334L328 335.701V318.84C328 300.333 327.613 297 324.628 289.786C319.647 277.753 309.106 267.409 295.98 261.673C287.919 258.151 286.183 257.797 256.144 253.544C249.969 252.67 244.454 251.955 243.889 251.955C242.892 251.955 242.863 251.635 242.863 240.873V229.791L246.546 226.35C253.435 219.91 259.311 210.916 262.835 201.414C264.634 196.561 264.896 196.134 266.082 196.112C269.901 196.042 274.885 192.23 277.461 187.407C279.995 182.662 280.764 179.353 280.776 173.14C280.791 165.883 279.951 163.569 276.078 160.188L273.332 157.79L274.865 152.156C279.36 135.642 279.619 127.334 275.928 118.052C272.916 110.478 264.876 99.954 256.576 92.7201C249.909 86.9103 243.785 84.1419 233.116 82.1161C229.112 81.3558 225.974 81.1487 216.806 81.0401C210.563 80.9658 204.642 80.9978 203.648 81.1104ZM228.703 86.8828C241.903 88.7514 249.246 92.535 257.949 101.951C264.918 109.491 269.727 117.273 271.514 123.903C272.55 127.743 272.569 135.192 271.556 140.037C270.578 144.714 267.643 156.164 267.359 156.413C267.237 156.518 266.983 156.221 266.792 155.752C263.231 147 257.129 139.62 249.915 135.342C243.951 131.804 236.536 130.878 228.362 132.651C224.267 133.538 222.191 133.702 215 133.702C207.809 133.702 205.733 133.538 201.638 132.651C193.464 130.878 186.049 131.804 180.085 135.342C172.871 139.62 166.769 147 163.208 155.752C163.017 156.221 162.763 156.518 162.641 156.413C162.357 156.164 159.422 144.714 158.444 140.037C157.442 135.244 157.45 127.741 158.463 123.989C160.836 115.192 167.844 105.196 177.54 96.778C184.133 91.0542 190.266 88.4632 200.929 86.8986C206.582 86.0686 222.888 86.0595 228.703 86.8828ZM201.609 138.092C208.835 139.548 220.932 139.54 228.416 138.074C238.129 136.171 243.389 137.167 249.742 142.111C253.667 145.166 256.467 148.524 258.858 153.041C261.987 158.952 262.736 162.362 262.679 170.437C262.483 198.001 248.847 222.853 229.113 231.61C223.306 234.188 214.143 235.109 207.776 233.755C184.988 228.91 167.591 201.675 167.33 170.437C167.285 164.987 167.484 162.716 168.238 160.079C170.095 153.587 174.424 146.819 179.213 142.92C186.28 137.167 191.466 136.049 201.609 138.092ZM158.242 164.253C158.242 164.319 158.828 166.599 159.544 169.32C160.26 172.04 161.296 177.204 161.847 180.796C162.397 184.388 163.007 188.11 163.202 189.067C163.544 190.748 163.517 190.79 162.436 190.285C160.818 189.529 157.975 185.537 156.639 182.147C155.074 178.177 154.917 169.513 156.35 166.271C156.87 165.095 157.508 164.132 157.769 164.132C158.029 164.132 158.242 164.187 158.242 164.253ZM273.65 166.271C275.083 169.513 274.926 178.177 273.361 182.147C272.025 185.537 269.182 189.529 267.564 190.285C266.483 190.79 266.456 190.748 266.798 189.067C266.993 188.11 267.603 184.388 268.153 180.796C268.704 177.204 269.74 172.04 270.456 169.32C271.172 166.599 271.758 164.319 271.758 164.253C271.758 164.187 271.971 164.132 272.231 164.132C272.492 164.132 273.13 165.095 273.65 166.271ZM197.855 236.136C208.892 240.966 221.066 240.97 232.216 236.146C234.448 235.18 236.364 234.39 236.473 234.39C236.582 234.39 236.671 238.696 236.671 243.959V253.528L225.994 276.836C220.121 289.656 215.173 300.145 215 300.145C214.827 300.145 209.879 289.656 204.006 276.836L193.329 253.528V243.959C193.329 238.696 193.45 234.39 193.598 234.39C193.746 234.39 195.662 235.176 197.855 236.136ZM183.773 313.335C186.351 314.609 188.149 317.286 188.161 319.867C188.189 326.407 179.471 329.964 173.892 325.688C170.48 323.074 169.748 319.754 171.825 316.316C174.112 312.534 179.455 311.201 183.773 313.335Z" fill="#6191FE"/>
</svg>
