<svg width="200" height="200" viewBox="0 0 425 441" fill="none" xmlns="http://www.w3.org/2000/svg">
<rect x="1.5" y="1.5" width="422" height="438" rx="75.5" fill="white" stroke="black" stroke-width="3"/>
<path fill-rule="evenodd" clip-rule="evenodd" d="M189.227 105.497C166.884 110.359 154.74 121.096 150.842 139.435C148.553 150.207 151.314 166.914 157.655 180.671C159.556 184.797 160.81 190.491 161.311 197.275C162.581 214.502 170.912 234.875 180.73 244.764C184.581 248.645 184.799 248.457 166.981 256.641C139.03 269.48 124.832 289.717 123.313 318.886C122.687 330.892 122.828 331.959 125.345 334.373L128.048 336.967H212.883C311.84 336.967 302.783 338.352 302.783 323.221C302.783 302.391 295.611 285.059 281.32 271.348C274.275 264.59 270.108 261.881 258.007 256.192C249.903 252.383 243.272 248.779 243.272 248.183C243.272 247.587 245.303 244.546 247.786 241.425C257.184 229.616 263.212 213.761 264.345 197.883C264.81 191.363 266.199 185.366 268.566 179.662C273.535 167.677 275.414 159.208 275.433 148.687C275.454 137.6 273.647 131.298 268.262 123.676C263.132 116.413 254.377 110.61 243.472 107.241C232.549 103.867 201.332 102.863 189.227 105.497ZM225.125 113.462C240.366 115.002 249.841 118.484 256.703 125.066C266.226 134.203 268.43 149.121 262.863 166.769L260.799 173.312L251.773 172.507C231.103 170.665 216.657 164.608 206.012 153.324C197.228 144.013 194.706 144.074 191.486 153.673C188.427 162.793 175.973 172.875 167.666 172.954C165.38 172.976 164.497 171.81 162.854 166.604C153.334 136.443 166.189 117.151 198.193 113.567C210.837 112.152 212.122 112.147 225.125 113.462ZM220.256 174.616C227.055 177.536 233.962 179.209 251.819 182.259C254.485 182.715 254.667 183.345 254.649 192.136C254.602 215.905 243.384 237.701 226.719 246.402C200.31 260.191 171.193 231.443 171.118 191.505C171.103 183.303 171.451 181.484 173.04 181.484C179.171 181.484 193.347 171.046 197.621 163.385C198.984 160.941 199.233 161.022 205.64 166.02C209.275 168.856 215.853 172.724 220.256 174.616ZM197.056 256.249C204.48 259.711 221.637 259.581 229.089 256.008L234.533 253.397L238.543 256.911C240.749 258.844 244.424 261.017 246.711 261.741C248.998 262.465 250.857 263.426 250.843 263.875C250.827 264.324 242.281 268.191 231.85 272.468L212.883 280.245L193.917 272.468C183.486 268.191 174.939 264.324 174.924 263.875C174.91 263.426 176.758 262.469 179.032 261.75C181.306 261.029 184.866 258.864 186.945 256.936C189.025 255.009 191.01 253.535 191.358 253.66C191.706 253.785 194.27 254.95 197.056 256.249ZM187.324 279.876C200.075 285.22 211.611 289.593 212.958 289.593C214.305 289.593 225.807 285.22 238.52 279.876C251.231 274.531 262.487 270.162 263.531 270.166C266.718 270.179 276.982 279.49 282.422 287.306C289.135 296.949 292.654 308.015 292.654 319.481V328.464H212.883H133.113V319.481C133.113 308.02 136.632 296.951 143.334 287.322C148.962 279.237 158.888 270.158 162.1 270.158C163.222 270.158 174.572 274.531 187.324 279.876ZM246.058 291.051C245.222 291.853 244.538 294.28 244.538 296.444C244.538 300.093 244.203 300.407 239.918 300.756C230.924 301.49 230.865 309.273 239.846 310.009C244.063 310.355 244.422 310.699 244.783 314.745C245.242 319.9 248.427 322.478 251.819 320.44C253.099 319.671 254.199 317.264 254.423 314.745C254.784 310.699 255.143 310.355 259.36 310.009C268.341 309.273 268.282 301.49 259.288 300.756C255.003 300.407 254.668 300.093 254.668 296.444C254.668 292.154 252.775 289.593 249.603 289.593C248.489 289.593 246.893 290.249 246.058 291.051Z" fill="#6191FE"/>
</svg>
