<svg width="250" height="60" viewBox="0 0 437 95" fill="none" xmlns="http://www.w3.org/2000/svg">
<path d="M78.3009 47.134C78.3009 44.822 78.8222 42.748 79.8649 40.912C80.9075 39.0533 82.3242 37.6027 84.1149 36.56C85.9282 35.5173 87.9342 34.996 90.1329 34.996C92.7169 34.996 94.9722 35.6193 96.8989 36.866C98.8255 38.1127 100.231 39.8807 101.115 42.17H97.4089C96.7515 40.742 95.7995 39.6427 94.5529 38.872C93.3289 38.1013 91.8555 37.716 90.1329 37.716C88.4782 37.716 86.9935 38.1013 85.6789 38.872C84.3642 39.6427 83.3329 40.742 82.5849 42.17C81.8369 43.5753 81.4629 45.23 81.4629 47.134C81.4629 49.0153 81.8369 50.67 82.5849 52.098C83.3329 53.5033 84.3642 54.5913 85.6789 55.362C86.9935 56.1327 88.4782 56.518 90.1329 56.518C91.8555 56.518 93.3289 56.144 94.5529 55.396C95.7995 54.6253 96.7515 53.526 97.4089 52.098H101.115C100.231 54.3647 98.8255 56.1213 96.8989 57.368C94.9722 58.592 92.7169 59.204 90.1329 59.204C87.9342 59.204 85.9282 58.694 84.1149 57.674C82.3242 56.6313 80.9075 55.192 79.8649 53.356C78.8222 51.52 78.3009 49.446 78.3009 47.134ZM108.815 33.84V59H105.721V33.84H108.815ZM115.686 37.342C115.096 37.342 114.598 37.138 114.19 36.73C113.782 36.322 113.578 35.8233 113.578 35.234C113.578 34.6447 113.782 34.146 114.19 33.738C114.598 33.33 115.096 33.126 115.686 33.126C116.252 33.126 116.728 33.33 117.114 33.738C117.522 34.146 117.726 34.6447 117.726 35.234C117.726 35.8233 117.522 36.322 117.114 36.73C116.728 37.138 116.252 37.342 115.686 37.342ZM117.182 40.368V59H114.088V40.368H117.182ZM121.299 49.65C121.299 47.7233 121.684 46.046 122.455 44.618C123.226 43.1673 124.291 42.0453 125.651 41.252C127.034 40.4587 128.609 40.062 130.377 40.062C132.666 40.062 134.548 40.6173 136.021 41.728C137.517 42.8387 138.503 44.38 138.979 46.352H135.647C135.33 45.2187 134.706 44.3233 133.777 43.666C132.87 43.0087 131.737 42.68 130.377 42.68C128.609 42.68 127.181 43.292 126.093 44.516C125.005 45.7173 124.461 47.4287 124.461 49.65C124.461 51.894 125.005 53.628 126.093 54.852C127.181 56.076 128.609 56.688 130.377 56.688C131.737 56.688 132.87 56.3707 133.777 55.736C134.684 55.1013 135.307 54.1947 135.647 53.016H138.979C138.48 54.92 137.483 56.45 135.987 57.606C134.491 58.7393 132.621 59.306 130.377 59.306C128.609 59.306 127.034 58.9093 125.651 58.116C124.291 57.3227 123.226 56.2007 122.455 54.75C121.684 53.2993 121.299 51.5993 121.299 49.65ZM153.511 59L146.201 50.772V59H143.107V33.84H146.201V48.63L153.375 40.368H157.693L148.921 49.65L157.727 59H153.511ZM184.256 35.302V37.818H177.796V59H174.702V37.818H168.208V35.302H184.256ZM196.19 59.306C194.445 59.306 192.858 58.9093 191.43 58.116C190.025 57.3227 188.914 56.2007 188.098 54.75C187.305 53.2767 186.908 51.5767 186.908 49.65C186.908 47.746 187.316 46.0687 188.132 44.618C188.971 43.1447 190.104 42.0227 191.532 41.252C192.96 40.4587 194.558 40.062 196.326 40.062C198.094 40.062 199.692 40.4587 201.12 41.252C202.548 42.0227 203.67 43.1333 204.486 44.584C205.325 46.0347 205.744 47.7233 205.744 49.65C205.744 51.5767 205.314 53.2767 204.452 54.75C203.614 56.2007 202.469 57.3227 201.018 58.116C199.568 58.9093 197.958 59.306 196.19 59.306ZM196.19 56.586C197.301 56.586 198.344 56.3253 199.318 55.804C200.293 55.2827 201.075 54.5007 201.664 53.458C202.276 52.4153 202.582 51.146 202.582 49.65C202.582 48.154 202.288 46.8847 201.698 45.842C201.109 44.7993 200.338 44.0287 199.386 43.53C198.434 43.0087 197.403 42.748 196.292 42.748C195.159 42.748 194.116 43.0087 193.164 43.53C192.235 44.0287 191.487 44.7993 190.92 45.842C190.354 46.8847 190.07 48.154 190.07 49.65C190.07 51.1687 190.342 52.4493 190.886 53.492C191.453 54.5347 192.201 55.3167 193.13 55.838C194.06 56.3367 195.08 56.586 196.19 56.586ZM226.391 59.238C224.827 59.238 223.421 58.966 222.175 58.422C220.951 57.8553 219.987 57.0847 219.285 56.11C218.582 55.1127 218.219 53.968 218.197 52.676H221.495C221.608 53.7867 222.061 54.7273 222.855 55.498C223.671 56.246 224.849 56.62 226.391 56.62C227.864 56.62 229.02 56.2573 229.859 55.532C230.72 54.784 231.151 53.832 231.151 52.676C231.151 51.7693 230.901 51.0327 230.403 50.466C229.904 49.8993 229.281 49.4687 228.533 49.174C227.785 48.8793 226.776 48.562 225.507 48.222C223.943 47.814 222.685 47.406 221.733 46.998C220.803 46.59 219.999 45.9553 219.319 45.094C218.661 44.21 218.333 43.0313 218.333 41.558C218.333 40.266 218.661 39.1213 219.319 38.124C219.976 37.1267 220.894 36.356 222.073 35.812C223.274 35.268 224.645 34.996 226.187 34.996C228.408 34.996 230.221 35.5513 231.627 36.662C233.055 37.7727 233.859 39.246 234.041 41.082H230.641C230.527 40.1753 230.051 39.382 229.213 38.702C228.374 37.9993 227.263 37.648 225.881 37.648C224.589 37.648 223.535 37.988 222.719 38.668C221.903 39.3253 221.495 40.2547 221.495 41.456C221.495 42.3173 221.733 43.02 222.209 43.564C222.707 44.108 223.308 44.5273 224.011 44.822C224.736 45.094 225.745 45.4113 227.037 45.774C228.601 46.2047 229.859 46.6353 230.811 47.066C231.763 47.474 232.579 48.12 233.259 49.004C233.939 49.8653 234.279 51.044 234.279 52.54C234.279 53.696 233.973 54.784 233.361 55.804C232.749 56.824 231.842 57.6513 230.641 58.286C229.439 58.9207 228.023 59.238 226.391 59.238ZM255.832 48.97C255.832 49.5593 255.798 50.1827 255.73 50.84H240.838C240.951 52.676 241.575 54.1153 242.708 55.158C243.864 56.178 245.258 56.688 246.89 56.688C248.227 56.688 249.338 56.382 250.222 55.77C251.129 55.1353 251.763 54.2967 252.126 53.254H255.458C254.959 55.0447 253.962 56.5067 252.466 57.64C250.97 58.7507 249.111 59.306 246.89 59.306C245.122 59.306 243.535 58.9093 242.13 58.116C240.747 57.3227 239.659 56.2007 238.866 54.75C238.073 53.2767 237.676 51.5767 237.676 49.65C237.676 47.7233 238.061 46.0347 238.832 44.584C239.603 43.1333 240.679 42.0227 242.062 41.252C243.467 40.4587 245.077 40.062 246.89 40.062C248.658 40.062 250.222 40.4473 251.582 41.218C252.942 41.9887 253.985 43.054 254.71 44.414C255.458 45.7513 255.832 47.27 255.832 48.97ZM252.636 48.324C252.636 47.1453 252.375 46.1367 251.854 45.298C251.333 44.4367 250.619 43.7907 249.712 43.36C248.828 42.9067 247.842 42.68 246.754 42.68C245.19 42.68 243.853 43.1787 242.742 44.176C241.654 45.1733 241.031 46.556 240.872 48.324H252.636ZM276.916 48.97C276.916 49.5593 276.882 50.1827 276.814 50.84H261.922C262.035 52.676 262.659 54.1153 263.792 55.158C264.948 56.178 266.342 56.688 267.974 56.688C269.311 56.688 270.422 56.382 271.306 55.77C272.213 55.1353 272.847 54.2967 273.21 53.254H276.542C276.043 55.0447 275.046 56.5067 273.55 57.64C272.054 58.7507 270.195 59.306 267.974 59.306C266.206 59.306 264.619 58.9093 263.214 58.116C261.831 57.3227 260.743 56.2007 259.95 54.75C259.157 53.2767 258.76 51.5767 258.76 49.65C258.76 47.7233 259.145 46.0347 259.916 44.584C260.687 43.1333 261.763 42.0227 263.146 41.252C264.551 40.4587 266.161 40.062 267.974 40.062C269.742 40.062 271.306 40.4473 272.666 41.218C274.026 41.9887 275.069 43.054 275.794 44.414C276.542 45.7513 276.916 47.27 276.916 48.97ZM273.72 48.324C273.72 47.1453 273.459 46.1367 272.938 45.298C272.417 44.4367 271.703 43.7907 270.796 43.36C269.912 42.9067 268.926 42.68 267.838 42.68C266.274 42.68 264.937 43.1787 263.826 44.176C262.738 45.1733 262.115 46.556 261.956 48.324H273.72ZM303.46 35.302V37.818H293.158V45.808H301.522V48.324H293.158V59H290.064V35.302H303.46ZM308.795 37.342C308.206 37.342 307.707 37.138 307.299 36.73C306.891 36.322 306.687 35.8233 306.687 35.234C306.687 34.6447 306.891 34.146 307.299 33.738C307.707 33.33 308.206 33.126 308.795 33.126C309.362 33.126 309.838 33.33 310.223 33.738C310.631 34.146 310.835 34.6447 310.835 35.234C310.835 35.8233 310.631 36.322 310.223 36.73C309.838 37.138 309.362 37.342 308.795 37.342ZM310.291 40.368V59H307.197V40.368H310.291ZM318.658 33.84V59H315.564V33.84H318.658ZM340.931 48.97C340.931 49.5593 340.897 50.1827 340.829 50.84H325.937C326.051 52.676 326.674 54.1153 327.807 55.158C328.963 56.178 330.357 56.688 331.989 56.688C333.327 56.688 334.437 56.382 335.321 55.77C336.228 55.1353 336.863 54.2967 337.225 53.254H340.557C340.059 55.0447 339.061 56.5067 337.565 57.64C336.069 58.7507 334.211 59.306 331.989 59.306C330.221 59.306 328.635 58.9093 327.229 58.116C325.847 57.3227 324.759 56.2007 323.965 54.75C323.172 53.2767 322.775 51.5767 322.775 49.65C322.775 47.7233 323.161 46.0347 323.931 44.584C324.702 43.1333 325.779 42.0227 327.161 41.252C328.567 40.4587 330.176 40.062 331.989 40.062C333.757 40.062 335.321 40.4473 336.681 41.218C338.041 41.9887 339.084 43.054 339.809 44.414C340.557 45.7513 340.931 47.27 340.931 48.97ZM337.735 48.324C337.735 47.1453 337.475 46.1367 336.953 45.298C336.432 44.4367 335.718 43.7907 334.811 43.36C333.927 42.9067 332.941 42.68 331.853 42.68C330.289 42.68 328.952 43.1787 327.841 44.176C326.753 45.1733 326.13 46.556 325.971 48.324H337.735ZM351.611 59.306C350.183 59.306 348.903 59.068 347.769 58.592C346.636 58.0933 345.741 57.4133 345.083 56.552C344.426 55.668 344.063 54.6593 343.995 53.526H347.191C347.282 54.4553 347.713 55.2147 348.483 55.804C349.277 56.3933 350.308 56.688 351.577 56.688C352.756 56.688 353.685 56.4273 354.365 55.906C355.045 55.3847 355.385 54.7273 355.385 53.934C355.385 53.118 355.023 52.5173 354.297 52.132C353.572 51.724 352.45 51.3273 350.931 50.942C349.549 50.5793 348.415 50.2167 347.531 49.854C346.67 49.4687 345.922 48.9133 345.287 48.188C344.675 47.44 344.369 46.4653 344.369 45.264C344.369 44.312 344.653 43.4393 345.219 42.646C345.786 41.8527 346.591 41.2293 347.633 40.776C348.676 40.3 349.866 40.062 351.203 40.062C353.266 40.062 354.932 40.5833 356.201 41.626C357.471 42.6687 358.151 44.0967 358.241 45.91H355.147C355.079 44.9353 354.683 44.1533 353.957 43.564C353.255 42.9747 352.303 42.68 351.101 42.68C349.991 42.68 349.107 42.918 348.449 43.394C347.792 43.87 347.463 44.4933 347.463 45.264C347.463 45.876 347.656 46.386 348.041 46.794C348.449 47.1793 348.948 47.4967 349.537 47.746C350.149 47.9727 350.988 48.2333 352.053 48.528C353.391 48.8907 354.479 49.2533 355.317 49.616C356.156 49.956 356.87 50.4773 357.459 51.18C358.071 51.8827 358.389 52.8007 358.411 53.934C358.411 54.954 358.128 55.872 357.561 56.688C356.995 57.504 356.19 58.15 355.147 58.626C354.127 59.0793 352.949 59.306 351.611 59.306Z" fill="black"/>
<rect x="2.5" y="2.5" width="432" height="90" rx="20.5" stroke="#6191FE" stroke-width="5"/>
</svg>
